<?xml version="1.0" standalone="no"?>
<!DOCTYPE svg PUBLIC "-//W3C//DTD SVG 1.1//EN" "http://www.w3.org/Graphics/SVG/1.1/DTD/svg11.dtd" >
<!--
2013-9-30: Created.
-->
<svg>
<metadata>
Created by iconfont
</metadata>
<defs>

<font id="iconfont" horiz-adv-x="1024" >
  <font-face
    font-family="iconfont"
    font-weight="500"
    font-stretch="normal"
    units-per-em="1024"
    ascent="896"
    descent="-128"
  />
    <missing-glyph />
    
    <glyph glyph-name="x" unicode="x" horiz-adv-x="1001"
d="M281 543q-27 -1 -53 -1h-83q-18 0 -36.5 -6t-32.5 -18.5t-23 -32t-9 -45.5v-76h912v41q0 16 -0.5 30t-0.5 18q0 13 -5 29t-17 29.5t-31.5 22.5t-49.5 9h-133v-97h-438v97zM955 310v-52q0 -23 0.5 -52t0.5 -58t-10.5 -47.5t-26 -30t-33 -16t-31.5 -4.5q-14 -1 -29.5 -0.5
t-29.5 0.5h-32l-45 128h-439l-44 -128h-29h-34q-20 0 -45 1q-25 0 -41 9.5t-25.5 23t-13.5 29.5t-4 30v167h911zM163 247q-12 0 -21 -8.5t-9 -21.5t9 -21.5t21 -8.5q13 0 22 8.5t9 21.5t-9 21.5t-22 8.5zM316 123q-8 -26 -14 -48q-5 -19 -10.5 -37t-7.5 -25t-3 -15t1 -14.5
t9.5 -10.5t21.5 -4h37h67h81h80h64h36q23 0 34 12t2 38q-5 13 -9.5 30.5t-9.5 34.5q-5 19 -11 39h-368zM336 498v228q0 11 2.5 23t10 21.5t20.5 15.5t34 6h188q31 0 51.5 -14.5t20.5 -52.5v-227h-327z" />
    

    
    <glyph glyph-name="tushu" unicode="&#58908;" d="M90.0352 608.366336c-13.216768 0-23.954432-10.73664-23.954432-23.929856l0-569.376768c0-6.760448 2.870272-13.253632 7.91552-17.80224 4.984832-4.473856 11.101184-6.735872 18.518016-6.030336 0.4864 0.048128 53.087232 5.3504 121.945088 5.3504 70.4512 0 169.293824-5.665792 240.098304-32.587776 2.735104-1.04448 5.593088-1.580032 8.4992-1.580032 3.818496 0 7.380992 1.168384 10.663936 2.845696 7.003136-2.72384 14.01856-5.569536 21.059584-8.65792 2.588672-1.14176 5.337088-1.726464 8.158208-1.726464 3.574784 0 7.016448 1.216512 10.15296 3.040256 3.137536-1.823744 6.5792-3.040256 10.15296-3.040256 2.808832 0 5.568512 0.58368 8.134656 1.701888 7.04 3.111936 14.08 5.957632 21.08416 8.682496 3.270656-1.678336 6.846464-2.845696 10.651648-2.845696 2.9184 0 5.763072 0.535552 8.522752 1.580032 70.779904 26.921984 169.622528 32.587776 240.086016 32.587776 68.857856 0 121.458688-5.302272 122.017792-5.3504 6.846464-0.608256 13.461504 1.55648 18.4576 6.030336 5.033984 4.547584 7.904256 11.041792 7.904256 17.80224L960.103424 584.43648c0 13.193216-10.748928 23.929856-23.954432 23.929856-13.193216 0-23.942144-10.73664-23.942144-23.929856l0-543.356928c-16.18432 1.168384-37.571584 2.36032-62.389248 3.040256L849.8176 616.099584c0 12.329984-8.438784 22.5792-19.637248 23.831552-17.765376 1.957888-35.90656 2.966528-53.926912 2.966528-147.187712 0-250.591232-65.161216-263.163904-73.46688-12.583936 8.30464-115.975168 73.46688-263.16288 73.46688-18.020352 0-36.161536-1.009664-53.9392-2.966528-11.186176-1.252352-19.62496-11.502592-19.62496-23.831552L176.362496 44.119808c-24.81664-0.679936-46.205952-1.871872-62.401536-3.040256L113.96096 584.43648C113.965056 597.629696 103.228416 608.366336 90.0352 608.366336zM545.097728 534.097664c28.392448 16.37888 116.31616 60.894208 231.159808 60.894208 9.959424 0 19.989504-0.340992 29.888512-0.985088L806.146048 51.635968c-11.54048 0.704512-23.673856 1.07008-36.161536 1.07008-54.85056 0-137.715712-6.956032-224.88576-39.47008L545.098752 534.097664zM220.04224 594.00576c9.885696 0.644096 19.9168 0.985088 29.888512 0.985088 114.832384 0 202.768384-44.515328 231.159808-60.894208L481.09056 13.235968c-87.182336 32.514048-170.0352 39.47008-224.88576 39.47008-12.48768 0-24.623104-0.365568-36.161536-1.07008L220.043264 594.00576z"  horiz-adv-x="1024" />

    
    <glyph glyph-name="shenghuofuwu" unicode="&#58925;" d="M894.8255 491.468776l-85.10326 0c0 0-25.139563 255.31285-297.866015 255.31285 0 0-297.864992 8.623401-297.864992-255.31285l-85.105307 0c-34.365692 0-42.552142-19.427468-42.552142-53.896514L86.333786-84.398834c0-34.491559 27.842115-62.415538 62.207807-62.415538l726.628242 0c34.366715 0 62.207807 27.92398 62.207807 62.415538L937.377642 437.572262C937.377642 472.041308 929.192216 491.468776 894.8255 491.468776zM511.856225 661.677343c0 0 212.473159 2.826372 212.473159-169.709193l-425.357687 0C298.971697 491.96815 302.046732 661.677343 511.856225 661.677343zM852.275405-19.154877c0-24.460088-17.593703-42.555212-42.553165-42.555212L213.992257-61.710089c-26.040073 0-42.551118 12.978593-42.551118 42.555212L171.441139 406.36347l680.83529 0L852.276429-19.154877zM511.856225 23.395218c179.904393 92.966345 170.210613 207.949122 170.210613 207.949122 0.189312 48.064692-42.844807 89.915869-95.744621 89.915869-30.29191 0-56.927547-18.055215-74.465992-37.236066-17.577331 19.180851-44.173059 37.236066-74.465992 37.236066-52.897767 0-99.274004-43.747363-95.741551-89.915869C341.648682 231.344341 337.69565 114.997496 511.856225 23.395218zM426.420391 208.397722c-0.378623 15.752776 15.832594 27.758204 35.281551 27.758204 32.346709 0 39.254026-22.070668 39.254026-22.070668 2.940982-6.183839 5.773494-11.187807 10.853186-11.187807 4.598738 0 6.415107 3.174296 9.740852 11.06808 0 0 6.139837 22.190395 39.050388 22.190395 19.449981 0 36.69576-12.472056 35.283598-27.758204-6.456039-69.864184-84.569094-99.648534-84.569094-99.648534-0.082888 0.039909-0.082888 0.081864-0.162706 0.122797-0.084934-0.040932-0.084934-0.082888-0.168846-0.122797C421.94752 145.696682 426.420391 208.397722 426.420391 208.397722z"  horiz-adv-x="1024" />

    
    <glyph glyph-name="zhanghaoxinxi" unicode="&#58894;" d="M511.722667 751.072c-250.56 0-453.674667-202.218667-453.674667-451.712 0-249.450667 203.114667-451.712 453.674667-451.712s453.674667 202.24 453.674667 451.712C965.397333 548.832 762.282667 751.072 511.722667 751.072zM511.722667-107.210667c-225.514667 0-408.341333 182.016-408.341333 406.570667s182.826667 406.570667 408.341333 406.570667 408.341333-182.016 408.341333-406.570667S737.258667-107.210667 511.722667-107.210667zM866.581333 27.168l-1.301333 1.749333c-21.312 29.013333-72.064 55.808-125.781333 84.181333-44.16 23.317333-118.08 62.357333-118.506667 81.770667l-0.064 19.84c47.978667 46.528 74.261333 109.632 74.261333 178.794667 0 53.952 0 218.176-184.192 218.218667C326.826667 611.68 326.826667 447.477333 326.826667 393.504c0-69.184 26.282667-132.288 74.261333-178.794667l-0.042667-19.370667c-0.426667-19.882667-74.325333-58.922667-118.506667-82.218667-53.717333-28.373333-104.448-55.168-125.781333-84.181333l-1.301333-1.749333c11.562667-14.912 23.701333-29.354667 37.013333-42.688-0.512 7.338667-0.512 15.274667 0.938667 22.016 17.770667 20.672 66.133333 46.208 109.056 68.885333 75.264 39.744 140.288 74.069333 141.248 119.509333l0.106667 38.592L436.693333 239.84c-43.328 38.848-67.2 93.418667-67.2 153.685333 0 124.672 41.002667 175.530667 141.525333 175.552 100.522667-0.021333 141.525333-50.88 141.525333-175.552 0-60.245333-23.872-114.816-67.2-153.685333l-7.104-6.378667 0.106667-39.04c0.981333-44.970667 65.984-79.296 141.248-119.04 42.922667-22.677333 91.285333-48.213333 109.056-68.885333 1.450667-6.741333 1.429333-14.677333 0.938667-22.016C842.88-2.186667 855.018667 12.256 866.581333 27.168zM795.114667-46.538667l-152.192-81.408C699.157333-110.730667 750.677333-82.784 795.114667-46.538667zM379.114667-127.968l-151.872 81.173333C271.637333-82.912 323.029333-110.773333 379.114667-127.968z"  horiz-adv-x="1024" />

    
    <glyph glyph-name="10" unicode="&#58889;" d="M296.024575 455.469887c30.845519 0 55.825446-25.010627 55.825446-55.825446 0-30.872125-24.979928-55.855122-55.825446-55.855122-30.846542 0-55.855122 24.982998-55.855122 55.855122C240.169453 430.459261 265.179057 455.469887 296.024575 455.469887zM519.439948 455.469887c30.872125 0 55.853076-25.010627 55.853076-55.825446 0-30.872125-24.980951-55.855122-55.853076-55.855122-30.873148 0-55.828516 24.982998-55.828516 55.855122C463.612455 430.459261 488.5668 455.469887 519.439948 455.469887zM742.85532 455.469887c30.816866 0 55.852052-25.010627 55.852052-55.825446 0-30.872125-25.035186-55.855122-55.852052-55.855122-30.872125 0-55.828516 24.982998-55.828516 55.855122C687.026804 430.459261 711.983195 455.469887 742.85532 455.469887zM827.430554 734.764941 196.567399 734.764941c-72.571852 0-131.371026-58.742892-131.371026-131.153062l0-419.776575c0-72.433706 58.799174-131.179668 131.371026-131.179668l262.850523 0 0-183.653787 302.286698 183.653787 65.725934 0c72.54627 0 131.37205 58.745962 131.37205 131.179668L958.802604 603.612902C958.802604 676.022049 899.9758 734.764941 827.430554 734.764941zM903.00274 183.835304c0-41.507346-33.92567-75.325569-75.573209-75.325569l-65.725934 0-15.653515 0-13.33675-8.073886-217.442334-132.163065 0 84.382852 0 55.854099-55.854099 0L196.567399 108.509734c-41.644469 0-75.573209 33.819247-75.573209 75.325569L120.99419 603.612902c0 41.508369 33.927717 75.271334 75.573209 75.271334l630.863155 0c41.646516 0 75.573209-33.762965 75.573209-75.271334L903.003763 183.835304z"  horiz-adv-x="1024" />

    
    <glyph glyph-name="shoucang" unicode="&#58895;" d="M327.728136 91.698724l150.60509 60.966537 33.721009 13.627369 33.721009-13.627369 150.609183-60.914348-4.484128 166.562527-0.907673 32.985252 20.663622 25.711592 96.563266 120.353089L652.842749 484.425224l-30.030967 9.081843-17.825994 25.716708-92.931552 134.033669-92.871177-134.033669-17.825994-25.716708-30.033014-9.081843-155.490354-47.120181 96.566336-120.29476 20.663622-25.711592-0.907673-32.985252L327.728136 91.698724M789.940197-43.129031 512.054235 69.272969 234.17339-43.129031l8.115841 303.886125L62.389956 484.824313l282.879696 85.667102L512.054235 811.130054l166.843936-240.638639 282.711873-85.667102L781.766027 260.756071 789.940197-43.129031 789.940197-43.129031 789.940197-43.129031z"  horiz-adv-x="1024" />

    
    <glyph glyph-name="xiangji" unicode="&#58999;" d="M256.396727 886.707611c57.350688 0 104.82098-41.982234 112.786222-96.58653L143.58689 790.121081C151.526156 844.725378 198.996449 886.707611 256.396727 886.707611L256.396727 886.707611zM689.509423 686.929516c101.921094 0 194.209747-41.103766 260.989788-107.529588 66.803657-66.425821 108.122317-158.211481 108.122317-259.575267 0-101.361425-41.31866-193.147085-108.122317-259.572906-66.780042-66.425821-159.068695-107.51778-260.989788-107.51778-101.918732 0-194.209747 41.091959-261.013403 107.51778-66.77768 66.425821-108.122317 158.211481-108.122317 259.572906 0 101.366148 41.344636 193.151808 108.122317 259.575267C495.302038 645.825749 587.590691 686.929516 689.509423 686.929516L689.509423 686.929516zM642.497256 499.185477c-46.738236 26.82395-113.239625-0.715526-148.557787-61.551745-35.318162-60.82205-26.06828-131.885801 20.695933-158.72392 46.764213-26.852288 70.182922 26.472091 105.524699 87.296503C655.452286 427.028365 689.259107 472.333189 642.497256 499.185477L642.497256 499.185477zM867.840638 497.178226c-45.654321 45.378029-108.703239 73.460644-178.331215 73.460644-69.625615 0-132.700508-28.080253-178.328853-73.460644-45.65196-45.375668-73.862094-108.093979-73.862094-177.353566 0-69.257225 28.210134-131.973175 73.862094-177.351204 45.628345-45.378029 108.700877-73.458282 178.328853-73.458282 69.627976 0 132.676894 28.080253 178.331215 73.458282 45.625984 45.378029 73.862094 108.093979 73.862094 177.351204C941.702731 389.084247 913.466621 451.800197 867.840638 497.178226L867.840638 497.178226zM497.571411 894.819264l-81.39991-153.838036L140.384735 740.981228C63.825842 740.981228 1.180736 678.680897 1.180736 602.537622L1.180736 12.814523C1.180736-63.338198 63.825842-125.638529 140.384735-125.638529l902.303947 0C1119.273552-125.638529 1181.916297-63.338198 1181.916297 12.814523L1181.916297 602.537622c0 76.143275-62.642744 138.443606-139.227614 138.443606L998.52445 740.981228 904.896842 894.819264 497.571411 894.819264z"  horiz-adv-x="1184" />

    
    <glyph glyph-name="baihuo" unicode="&#58960;" d="M938.234709 683.40059C936.754631 647.132046 904.004892 610.173156 848.353906 581.982663 788.888974 551.861077 710.069703 535.273244 626.410155 535.273244 541.813874 535.273244 462.322005 552.183751 402.584462 582.89078 346.487239 611.724629 314.313899 649.282958 314.313899 685.93317 314.313899 722.583324 346.487239 760.143644 402.584462 788.979484 462.322005 819.686514 541.811996 836.59702 626.410155 836.59702 710.210219 836.59702 789.12859 819.96123 848.628395 789.754766 904.39259 761.442418 937.067804 724.351602 938.273394 687.991125L938.427164 683.401614 938.234709 683.401614 938.234709 683.40059ZM848.23973-19.33312C788.032398-50.454756 709.261255-67.59498 626.439396-67.59498L626.238464-67.59498C543.460921-67.59498 464.752981-51.010162 404.610731-20.899612 347.292843 7.79941 314.413909 45.164885 314.405433 81.619285L314.275214 573.187243 321.066268 567.438848C388.817465 510.09883 502.964565 475.864292 626.409188 475.864292 749.669888 475.864292 863.718912 510.027947 931.49366 567.249067L938.272427 572.975445 938.412999 86.306702C938.421476 48.796331 905.553863 10.292964 848.23973-19.334144L848.23973-19.334144 848.23973-19.33312ZM83.616028 70.395278 187.315769 310.760505C201.457266 343.499548 201.457266 381.041892 187.317646 413.763925L83.616028 654.147186 258.245006 654.147186 258.395932 81.607282C258.395932 80.564338 258.526094 79.44539 258.663822 78.262556 258.787385 77.205618 258.90816 76.14464 258.962887 75.071716L259.205291 70.395278 83.616028 70.395278 83.616028 70.395278ZM887.964444 834.352185C819.327488 874.106368 726.4384 896 626.409188 896 441.586574 896 288.573156 820.654592 262.580565 716.843975L261.756075 713.549198 86.039438 713.549198C66.355883 713.549198 48.254236 703.058432 37.619086 685.486592 26.965106 667.905764 25.50198 646.075051 33.706155 627.089636L136.388949 389.037056C143.731826 372.032683 143.731826 352.514731 136.388949 335.49238L33.708032 97.458802C25.502891 78.464398 26.964139 56.635676 37.617209 39.062869 48.250482 21.48699 66.352071 10.996281 86.039438 10.996281L279.45398 10.996281C332.84005-73.60512 468.465948-127.000974 626.2177-127.000974 725.300736-127.000974 817.999303-104.712761 887.483335-64.239275 956.449508-24.068494 994.425287 29.396309 994.420622 86.305735L994.247964 682.987008C993.317831 742.427989 955.581668 795.190443 887.964444 834.352185Z"  horiz-adv-x="1024" />

    
    <glyph glyph-name="huwai" unicode="&#58900;" d="M970.227898 50.522656C786.232301 574.577577 762.949721 640.888676 759.770719 649.630932l0.090313 0.0289c-3.789515 12.809934-15.736062 21.758103-29.062584 21.758103-13.427672 0-25.403119-9.034869-29.033684-21.693078l-129.370945-367.933394L388.791985 809.628674c-3.384915 13.947873-15.725224 23.665505-30.102985 23.665505-14.363311 0-27.00707-10.115007-30.186072-24.102618L60.047019 49.59063c-1.842376-2.561264-2.850265-5.657179-2.850265-8.828956l0-35.420588c0-8.334044 6.777055-15.111099 15.111099-15.111099l886.385324 0c8.334044 0 15.111099 6.777055 15.111099 15.111099l0 35.420588C973.804276 44.374176 972.543512 47.798829 970.227898 50.522656zM131.881634 55.86916 358.468638 697.012517l175.466479-504.439032c1.289663-19.96269 17.791576-35.489226 37.898765-35.489226 18.766951 0 34.4416 13.330135 37.45804 31.775573l121.499301 345.550328 167.992211-478.537388L131.881634 55.86916 131.881634 55.86916z"  horiz-adv-x="1024" />

    
    <glyph glyph-name="nvzhuang" unicode="&#58890;" d="M959.838595 12.515998c-86.893101 143.456798-176.857533 286.977582-262.534899 430.498367 30.585348 66.097624 63.282236 132.067275 93.995556 198.164899 6.974483 14.972743 5.758747 27.322057-4.287068 40.119274-37.111928 46.965785-37.687803 124.388945-35.44829 181.848448 0.703847 18.044075-15.100716 32.376958-32.696888 32.376958L601.644502 895.523944c-13.437077 0-29.689543-9.277982-31.865069-23.610865C564.724532 839.600107 551.095497 797.113348 517.758747 784.572076c-45.558091-17.276242-66.097624 44.982216-68.401123 78.382952-1.279722 17.980089-14.140924 32.568916-33.144791 32.568916L305.132994 895.523944C287.21689 897.69947 266.869316 887.141767 265.845539 863.786846 263.158123 803.639928 258.743083 729.032156 226.750042 688.656937c-10.237773-12.925189-15.35666-25.018558-8.638121-40.055288 29.753529-67.313359 56.243767-134.626719 85.805337-201.812106-72.496232-125.668667-144.672534-253.064958-214.865267-381.549013-20.41156-37.431859-42.678717-62.194473-22.139185-102.377733 17.532187-34.296541 56.115795-63.666153 91.30814-77.551133 72.560218-28.537793 124.708876-7.294413 173.338299 47.349701C384.283778-8.087521 461.578967-128.637301 520.318191-127.997441c57.395516 0.511889 106.472842 59.763002 158.813458 77.359174 23.03499 7.870288 56.563697-37.303886 72.496232-49.6532 24.250725-18.875894 48.949354-24.058767 78.766868-18.172048 50.612992 9.725885 105.768995 52.788518 131.17147 97.578777C967.324967-10.582978 965.981259 2.342211 959.838595 12.515998L959.838595 12.515998zM492.420259 717.258716c70.704622-5.054901 118.054323 49.589214 135.842454 112.359562l56.947614 0c0.767833-60.27489 10.493718-123.749085 41.462982-174.745993-27.514016-59.315099-55.092017-118.502226-82.670019-177.817325L370.462784 477.054961c-9.725885 26.810169-26.874155 55.21999-33.272763 69.616858-16.892326 38.199692-33.272763 76.463369-50.037117 114.727047 32.376958 51.252853 39.799344 108.456411 43.12662 168.219412l57.715447 0C400.024355 775.614024 432.849215 721.481798 492.420259 717.258716L492.420259 717.258716zM846.647214-38.736855c-53.812296-33.528708-64.881888 5.310845-105.065148 33.400735-67.441332 47.029771-126.884403-2.879374-186.71139-37.815775-10.557704-6.20665-30.201431-22.075199-42.742703-16.508409-19.131839 8.574135-35.44829 25.018558-52.020686 37.687803-32.248986 24.762614-71.920357 42.422773-113.383339 34.104582-36.152137-7.166441-60.082932-27.258071-83.245894-54.516143-40.439204-47.413688-109.352216-7.038469-140.129522 34.936401 81.198339 141.345257 157.917653 281.090863 240.13977 418.660941l277.315684 0c6.718539-16.124493 18.044075-31.993042 29.817515-51.508797 73.392037-121.253627 144.288617-242.379283 217.168766-363.63291C876.912632-17.813406 862.195832-29.01097 846.647214-38.736855L846.647214-38.736855zM846.647214-38.736855"  horiz-adv-x="1024" />

    
    <glyph glyph-name="jinrudianpu" unicode="&#58945;" d="M924.119175 524.27072l-0.330528 1.418302 7.986905 1.103124-8.082072-0.677429c-0.346901 1.732457-0.709151 2.914376-1.165546 4.001127l-72.751954 181.077102c-11.358699 33.839713-44.095287 55.470359-83.559091 55.564503L256.0527 766.75745c-38.692231 0-69.554122-20.433378-80.582293-53.312206L97.126085 528.225799c-0.110517-0.330528-0.393973-1.559519-0.645706-2.77316-5.624091-17.470907-8.365528-34.564213-8.365528-51.689243 0.063445-59.486836 32.342616-113.870444 84.378759-142.416594l0.078795 0 1.544169-0.88209c0.031722 0 0.047072-0.01535 0.078795-0.031722l2.882654-1.544169c21.157879-10.634198 45.922912-16.021905 73.634044-16.021905 48.00227 0.14224 93.200682 21.252023 123.968429 57.895595l6.160303 7.357572 6.191003-7.341199c30.578436-36.313044 75.540464-57.296961 123.386168-57.596789 47.403636 0.378623 92.145653 21.409612 122.629945 57.739029l6.175653 7.357572 6.175653-7.357572c30.752398-36.628222 76.044954-57.643861 124.268258-57.643861 29.585829 0.157589 55.737442 6.333242 77.683267 18.352997 52.224432 28.54615 84.646865 83.260286 84.615143 142.795217C932.059008 491.187231 929.333944 508.406404 924.119175 524.27072zM825.420269 371.898381c-15.21861-8.318456-33.965579-12.603039-55.769165-12.745279-40.645722 0-77.714989 20.763906-99.203396 55.532781-1.654686 3.434216-3.670599 7.798617-7.372921 11.846816-4.049223 4.552689-11.422144 9.893324-23.757077 9.893324-9.609869 0-18.668175-3.764744-23.63121-9.830903-3.717671-4.206812-5.671163-8.255011-7.089465-11.20111-21.724791-35.241642-58.289568-56.037271-98.195439-56.336076-40.392966 0.236384-77.210499 21.062711-98.588389 55.706743-1.685385 3.371794-3.623527 7.372921-6.490831 10.587126-5.40408 6.443759-14.635325 10.17678-24.860201 10.17678 0 0 0 0-0.01535 0-9.609869 0-18.352997-3.308349-22.843264-8.648984-3.828188-4.206812-5.860475-8.176217-7.53051-11.878538-22.008246-35.462676-58.983369-56.131415-99.392708-56.273654-20.512173 0-38.32998 3.734044-53.012378 11.122315l-0.047072 0-1.827625 0.945535c-38.108946 20.291139-61.803601 59.72322-61.818951 102.905718 0 12.871145 2.142803 25.695219 6.364965 38.108946 0.189312 0.551562 0.36225 1.165546 0.488117 1.811252l77.431533 183.408193c6.601348 19.550265 24.182772 23.757077 37.731346 23.757077l510.337127 0c9.200546-0.535189 32.390711-1.906419 40.409338-25.490557l71.901587-179.044816c0.645706-2.409886 0.929162-3.450589 1.181919-4.316306 4.158716-12.099572 6.316869-24.87555 6.316869-37.604456C886.198517 431.685046 862.930581 392.441253 825.420269 371.898381zM844.797595 271.402549c-12.650111 0-22.937408-10.287297-22.937408-22.937408l0.063445-169.18219c0-14.021342-11.422144-25.474185-25.458835-25.521257l-583.451332-0.378623c-14.053064 0-25.490557 11.390421-25.490557 25.38004l-0.221034 166.237115c-0.01535 12.634762-10.31902 22.906709-22.953781 22.906709-12.681834-0.01535-22.953781-10.334369-22.937408-22.985504l0.221034-166.18902c0-39.274492 32.028461-71.224158 71.381747-71.224158l583.498404 0.36225c39.306214 0.078795 71.28658 32.137954 71.28658 71.444169l-0.063445 169.151491C867.735004 261.115252 857.447706 271.402549 844.797595 271.402549zM752.683664 550.485779 256.540817 550.485779c-12.650111 0-22.937408-10.302647-22.937408-22.953781 0-12.650111 10.287297-22.937408 22.937408-22.937408l496.141824 0c12.650111 0 22.937408 10.287297 22.937408 22.937408C775.621073 540.183132 765.333776 550.485779 752.683664 550.485779z"  horiz-adv-x="1024" />

    
    <glyph glyph-name="xin" unicode="&#58946;" d="M681.6 704c-51.2 0-99.2-19.2-137.6-57.6-12.8-12.8-32-12.8-41.6 0C464 681.6 416 704 364.8 704c-105.6 0-192-86.4-195.2-192l0-6.4c3.2-182.4 211.2-332.8 300.8-387.2 16-9.6 32-16 51.2-16 19.2 0 35.2 6.4 51.2 16 80 51.2 268.8 182.4 297.6 345.6 3.2 6.4 6.4 35.2 6.4 41.6C876.8 614.4 787.2 704 681.6 704zM806.4 476.8c-25.6-140.8-195.2-259.2-268.8-304-9.6-6.4-25.6-6.4-35.2 0-64 38.4-265.6 179.2-272 332.8l0 3.2C236.8 579.2 294.4 640 364.8 640c35.2 0 67.2-12.8 92.8-38.4 35.2-35.2 96-35.2 131.2 0C614.4 624 646.4 640 681.6 640c73.6 0 131.2-60.8 131.2-131.2C812.8 502.4 809.6 483.2 806.4 476.8z"  horiz-adv-x="1024" />

    
    <glyph glyph-name="nanzhuang" unicode="&#59187;" d="M707.90144 586.80832l2.33472 31.27808c0.11264 1.95072-0.03584 3.9424-0.45568 5.85728-0.49152 2.02752-12.43136 50.26816-76.28288 78.84288-30.42816 13.52704-67.83488 20.40832-111.15008 20.40832-159.54432 0-202.368-91.84256-204.1088-95.744-1.36192-3.03104-1.93024-6.36416-1.62816-9.66144l2.72896-30.27456L173.09184 534.46656l1.8944-481.152 675.1232 0L850.10944 534.41024 707.90144 586.80832zM671.24224 617.30816l-12.81024-171.7248-117.89312 107.36128 92.95872 106.09152C659.91168 642.79552 668.8512 623.71328 671.24224 617.30816zM513.87904 420.84864l50.81088-328.72448L456.27904 92.12416 513.87904 420.84864zM512.7424 432.41472l-43.27424 50.23232 44.2368 42.23488 44.53376-40.56064L512.7424 432.41472zM522.34752 684.38528c27.776 0 52.48512-3.08736 73.67168-9.21088l-82.95424-94.72L430.56128 670.2848C454.05696 678.58432 484.1472 684.38528 522.34752 684.38528zM394.4448 652.89216c0.68096-1.19296 1.51552-2.3296 2.50368-3.38944l89.28256-97.2032L371.36896 442.64448 355.7888 615.43424C360.18688 622.6688 371.5584 638.34112 394.4448 652.89216zM211.97312 507.29472l110.96576 40.2176 13.37344-148.4288c0.68096-7.40864 5.53472-13.79328 12.50816-16.43008 2.23744-0.83456 4.51072-1.23392 6.81984-1.23392 4.8896 0 9.73824 1.85856 13.4144 5.36064l72.30976 69.03296 32.62464-37.8624-57.088-325.83168L213.64224 92.11904 211.97312 507.29472zM811.30496 92.12416 603.9552 92.12416l-50.65216 327.69024 33.62816 38.3744 74.79296-68.1216c5.53472-5.02272 13.4144-6.46144 20.23424-3.67616 6.89664 2.72896 11.63264 9.16992 12.20096 16.57856l10.7264 143.5904 106.41408-39.20384L811.29984 92.12416z"  horiz-adv-x="1024" />

    
    <glyph glyph-name="quanqiugou" unicode="&#58897;" d="M748.137931 78.900966a52.877241 52.877241 0 0 1-52.294621-46.344828h-70.550069v-13.241379h70.550069c3.301517-26.059034 25.370483-46.344828 52.294621-46.344828s48.993103 20.285793 52.294621 46.344828h70.550069v13.241379h-70.550069c-3.301517 26.041379-25.370483 46.344828-52.294621 46.344828z m0-97.103449c-24.346483 0-44.137931 19.791448-44.137931 44.137931s19.791448 44.137931 44.137931 44.137931 44.137931-19.791448 44.137931-44.137931-19.791448-44.137931-44.137931-44.137931zM874.089931 126.728828h-43.325793c66.136276 74.963862 106.443034 173.232552 106.443034 280.805517C937.207172 641.995034 746.46069 832.741517 512 832.741517c-89.652966 0-172.844138-27.948138-241.487448-75.511172l-0.635586 0.300138-0.529656-1.129931c-110.238897-76.905931-182.554483-204.570483-182.554482-348.866207 0-157.060414 85.662897-294.4 212.656551-368.039724l0.47669-0.794483 0.441379 0.282483A422.417655 422.417655 0 0 1 512-17.672828c13.629793 0 27.065379 0.918069 40.377379 2.224552 1.518345-33.032828 23.905103-59.409655 51.429518-59.409655h270.283034c28.513103 0 51.729655 28.212966 51.729655 62.887724v75.828966c-0.017655 34.657103-23.216552 62.870069-51.729655 62.870069z m-623.827862 581.208275c-11.970207-34.409931-26.747586-85.345103-37.058207-148.868413H143.271724a400.331034 400.331034 0 0 0 106.990345 148.868413zM113.275586 407.534345c0 43.678897 7.168 85.698207 20.197517 125.051586h75.846621a944.075034 944.075034 0 0 1-8.439172-125.051586c0-52.788966 6.391172-102.36469 15.854345-147.138207h-75.211035a396.711724 396.711724 0 0 0-28.248276 147.138207z m39.847724-173.620966h69.649656a810.213517 810.213517 0 0 1 51.712-146.432 401.584552 401.584552 0 0 0-121.361656 146.432zM498.758621 9.145379a396.358621 396.358621 0 0 0-179.870897 49.699311c-10.928552 19.561931-45.038345 84.833103-68.431448 175.068689H498.758621v-224.768z m0 251.250759H244.153379c-9.922207 44.755862-16.790069 94.437517-16.790069 147.138207 0 45.073655 3.531034 86.951724 8.827587 125.051586H498.758621v-272.189793z m0 298.672552H240.251586c15.766069 93.413517 41.419034 159.020138 50.334897 179.870896A396.235034 396.235034 0 0 0 498.758621 805.92331v-246.85462z m295.265103-432.339862h-25.264552a783.465931 783.465931 0 0 1 35.734069 107.184551h66.383449c-19.42069-40.059586-45.762207-76.005517-76.852966-107.184551z m116.70069 280.805517a396.358621 396.358621 0 0 0-28.265931-147.138207h-71.821242c9.551448 44.226207 16.013241 93.21931 16.013242 145.44331 0 45.850483-3.566345 88.258207-8.951173 126.746483h72.809931a396.129103 396.129103 0 0 0 20.215173-125.051586z m-29.996138 151.534345h-67.10731c-10.78731 63.593931-26.14731 114.264276-38.135173 147.367724a400.313379 400.313379 0 0 0 105.242483-147.367724zM525.241379 805.92331a396.25269 396.25269 0 0 0 208.648828-67.301517l-0.070621-0.03531c0.459034-0.971034 33.491862-70.232276 52.753655-179.517793H525.241379V805.92331z m0-273.337379h265.622069c5.579034-38.43531 9.304276-80.913655 9.304276-126.746483 0-52.135724-6.956138-101.234759-16.966621-145.44331H525.241379V532.585931z m26.853518-468.744828v-52.700689c-8.880552-0.935724-17.796414-1.712552-26.853518-1.995035V233.913379h251.497931a780.941241 780.941241 0 0 0-37.093517-107.184551H603.806897c-28.513103 0-51.712-28.212966-51.712-62.887725z m347.224275-75.828965c0-19.720828-11.546483-36.404966-25.246896-36.404966H603.806897c-13.682759 0-25.246897 16.666483-25.246897 36.404966v75.828965c0 19.720828 11.546483 36.404966 25.246897 36.404966h270.283034c13.682759 0 25.246897-16.666483 25.246897-36.404966v-75.828965z"  horiz-adv-x="1024" />

    
    <glyph glyph-name="shouye" unicode="&#58923;" d="M819.2-25.6h-153.6v204.8H358.4v-204.8H204.8V445.44l307.2 307.2 307.2-307.2V-25.6z m102.4 512l-409.6 409.6L0 384l71.68-71.68 30.72 30.72V-128h358.4v204.8h102.4v-204.8h358.4v471.04l30.72-30.72L1024 384l-102.4 102.4z"  horiz-adv-x="1024" />

    
    <glyph glyph-name="gengduo" unicode="&#59179;" d="M168.457 488.441c-57.676 0-104.453-46.738-104.453-104.453 0-57.695 46.758-104.433 104.453-104.433S272.91 326.293 272.91 383.988c-0.02 57.715-46.777 104.453-104.453 104.453z m333.125 0c-57.676 0-104.453-46.738-104.453-104.453 0-57.695 46.758-104.433 104.453-104.433s104.453 46.738 104.453 104.433c0 57.715-46.758 104.453-104.453 104.453z m353.965 0c-57.695 0-104.453-46.738-104.453-104.453 0-57.695 46.758-104.433 104.453-104.433S960 326.293 960 383.988c0 57.715-46.777 104.453-104.453 104.453z"  horiz-adv-x="1024" />

    
    <glyph glyph-name="shafa" unicode="&#58625;" d="M965.565 345.172c-6.755 0-13.231-2.645-17.957-7.337-4.728-4.692-7.317-11.039-7.183-17.612l0.925-43.758v-214.593c0-26.961-22.554-48.896-50.284-48.896h-599.923c-27.725 0-50.285 21.935-50.285 48.896v214.597l0.925 43.759c0.136 6.573-2.448 12.92-7.181 17.612s-11.202 7.337-17.957 7.337c-66.063 0-119.812 52.259-119.812 116.491 0 64.232 53.749 116.491 119.812 116.491 65.75 0 119.301-51.763 119.8-115.581l-1.691-21.030c-0.052-0.632-0.077-1.27-0.077-1.907v-215.608c0-13.496 11.254-24.443 25.14-24.443h462.57c13.886 0 25.14 10.947 25.14 24.443v215.608c0 0.637-0.027 1.275-0.079 1.907l-1.689 21.030c0.505 63.818 54.049 115.581 119.8 115.581 66.063 0 119.811-52.253 119.811-116.491 0-64.232-53.743-116.496-119.805-116.496v0 0zM256.802 700.757c0 47.076 24.073 90.407 72.739 90.407h529.497c48.68 0 71.706-43.331 71.706-90.407l-0.278-78.402c-71.702-10.525-128.463-65.968-138.873-135.813v-45.443l0.005-0.064v-78.407l-0.005 0.001v-106.513h-400.833v230.447c-10.18 68.225-64.599 122.676-133.958 134.961v79.232zM1135.661 461.668c0 82.395-62.303 150.9-143.51 163.349l-0.718 80.798c0 79.205-43.072 143.64-124.819 143.64h-544.62c-81.749 0-126.957-64.434-126.957-143.64v-80.15c-83.619-10.366-148.492-79.928-148.492-163.996 0-82.724 62.792-151.462 144.473-163.512l-0.447-20.929v-215.35c0-47.779 35.442-87.599 82.096-96.063v-21.419c0-13.495 11.254-24.442 25.144-24.442 13.891 0 25.145 10.947 25.145 24.442v19.695h536.284v-19.695c0-13.495 11.254-24.442 25.144-24.442 13.886 0 25.14 10.947 25.14 24.442v21.419c46.654 8.464 82.102 48.285 82.102 96.063v214.845c0 0.167 0 0.334-0.005 0.505l-0.437 20.929c81.686 12.050 144.478 80.783 144.478 163.512v0 0z"  horiz-adv-x="1164" />

    
    <glyph glyph-name="wuliu" unicode="&#58974;" d="M343.296 317.696H209.152a33.536 33.536 0 0 0 0 67.072H309.76V485.44c0 18.624 14.976 33.536 33.536 33.536 18.688 0 33.6-14.976 33.6-33.536v-134.272a33.344 33.344 0 0 0-33.6-33.472zM710.784 222.144a137.6 137.6 0 0 1-133.568-106.112H447.232a137.152 137.152 0 0 1-133.504 106.112 137.728 137.728 0 0 1-137.536-137.472c0-76.032 61.76-137.728 137.536-137.728 63.36 0 116.16 43.392 132.032 101.824h132.672a137.344 137.344 0 0 1 132.288-101.824c75.84 0 137.536 61.76 137.536 137.536s-61.632 137.664-137.472 137.664z m-397.056-207.872a70.528 70.528 0 1 0 70.4 70.656 70.4 70.4 0 0 0-70.4-70.656z m397.056 0.192a70.4 70.4 0 1 0 0 140.672 70.4 70.4 0 0 0 0-140.672zM880.64 821.12H393.472a83.84 83.84 0 0 1-83.776-83.712v-97.152L105.6 537.792c-1.344-0.704-2.816-1.664-4.096-2.496-37.952-26.752-58.816-68.224-58.816-116.992v-337.856a33.472 33.472 0 1 1 67.072 0V418.304c0 26.176 9.536 46.72 28.352 60.8L358.4 589.568c1.408 0.704 2.56 2.112 3.84 3.072 1.984 1.408 3.968 2.688 5.568 4.352 1.536 1.664 2.56 3.456 3.712 5.248 1.088 1.792 2.304 3.456 3.072 5.568 0.96 2.368 1.088 4.672 1.472 7.04 0.128 1.6 0.896 3.072 0.896 4.672V737.408a16.64 16.64 0 0 0 16.576 16.576h487.104a33.92 33.92 0 0 0 33.6-34.112v-637.312c0-18.624 14.912-33.536 33.536-33.536s33.472 14.912 33.472 33.536V719.936A101.056 101.056 0 0 1 880.64 821.12z"  horiz-adv-x="1024" />

    
    <glyph glyph-name="chongwu" unicode="&#58989;" d="M120.5 255.9C52.9 255.9 0 340.5 0 448.6s52.9 192.6 120.5 192.6S241 556.6 241 448.6s-52.9-192.7-120.5-192.7z m0 321.3c-28.4 0-60.3-55-60.3-128.7S92 319.8 120.5 319.8s60.3 55 60.3 128.7-31.8 128.7-60.3 128.7z m241-65.4c-67.5 0-120.4 84.3-120.4 191.9S294 895.7 361.5 895.7s120.4-84.3 120.4-191.9-52.9-192-120.4-192z m0 319.9c-28.4 0-60.1-54.7-60.1-128s31.8-128 60.1-128 60.1 54.7 60.1 128-31.8 128-60.1 128z m301.4-319.9c-67.6 0-120.5 84.3-120.5 191.9S595.3 895.7 662.9 895.7s120.5-84.3 120.5-191.9-52.9-192-120.5-192z m0 319.9c-28.4 0-60.3-54.7-60.3-128s31.8-128 60.3-128 60.3 54.7 60.3 128-31.9 128-60.3 128zM904 255.9c-67.6 0-120.5 84.6-120.5 192.6S836.3 641.2 904 641.2s120.5-84.6 120.5-192.6S971.6 255.9 904 255.9z m0 321.3c-28.4 0-60.3-55-60.3-128.7s31.8-128.7 60.3-128.7c28.4 0 60.3 55 60.3 128.7S932.4 577.2 904 577.2z m-180.8-705.1c-52.3 0-87.7 18.8-118.8 35.4-28.9 15.4-53.9 28.6-92.1 28.6-38 0-63-13.2-91.9-28.6-31.3-16.6-66.7-35.4-119-35.4-33.5 0-65 19.4-86.6 53.2-37.8 59.2-38.4 149.1-1.7 246.6 66.1 175.4 175.1 276 299.1 276s233.1-100.6 299.1-276c36.7-97.5 36.1-187.4-1.7-246.6-21.5-33.8-53.1-53.2-86.6-53.2h0.2zM512.2 0c52.4 0 87.8-18.8 119-35.4 28.9-15.4 53.8-28.6 91.9-28.6 13.1 0 26.5 9.1 36.7 25 26 40.8 24.3 110.7-4.4 187C699 297.9 610.3 383.9 512.2 383.9S325.5 298 269 148.1c-28.7-76.3-30.4-146.3-4.4-187 10.1-15.9 23.5-25 36.7-25 38.1 0 63.1 13.2 92.1 28.7 31.2 16.5 66.7 35.3 118.8 35.2z"  horiz-adv-x="1024" />

    
    <glyph glyph-name="xiexue" unicode="&#58909;" d="M838.1 354.6l5-1.1-5 1.1z m73.5 419.6h-314c-26.3 0-47.7-21.4-47.7-47.7v-178.4c0.1-111.4-90.6-202.1-202-202.1-2.2 0-4.3-0.2-4.4-0.3-156.3-6.2-278.7-133.5-278.7-290 0-3.4 0.1-6.7 0.2-10.1-0.1-1.4-0.2-2.8-0.2-4.1 0-26.3 21.4-47.7 47.7-47.7h799.2c26.3 0 47.7 21.4 47.7 47.7 0 2.4-0.2 4.8-0.6 7.2 0.4 2.4 0.6 4.8 0.6 7.1V726.5c-0.1 26.3-21.5 47.7-47.8 47.7zM585.3 487.4H650c11.9 0 21.5 9.6 21.5 21.5s-9.6 21.5-21.5 21.5h-57.8c0.4 5.9 0.7 11.8 0.7 17.8v50.6h126.8c11.9 0 21.5 9.6 21.5 21.5s-9.6 21.5-21.5 21.5H592.9v84.9c0 2.6 2.1 4.8 4.7 4.8h314c2.6 0 4.7-2.1 4.7-4.8l-0.1-497.7H576.7c-0.6 0-1.1 0-1.7-0.1-31.4 53-78.6 82-122 97.9 64.9 31 114.1 89.6 132.3 160.6z m326.3-450.7H112.4c-2.6 0-4.7 2.1-4.7 5.3l0.2 1.8-0.1 1.8c-0.1 3.3-0.2 6.7-0.2 10 0 133.3 104.3 241.9 237.5 247.1l2.7 0.3c1.6 0 3.1 0 4.7 0.1 28.9 0 199.5-7.8 214.2-194.2 0.9-11.2 10.3-19.8 21.4-19.8 0.6 0 1.1 0 1.7 0.1 11.8 0.9 20.6 11.3 19.7 23.1-2.2 27.7-7.4 52.2-14.8 73.7h321.4v-131.8l-1.4-7.1 1.6-5.8c0.1-2.5-2.1-4.6-4.7-4.6z"  horiz-adv-x="1024" />

    
    <glyph glyph-name="meizhuang" unicode="&#59016;" d="M891.0336 349.2096l5.8112-1.3312-5.8112 1.3312zM204.2624 100.9152c-1.3568 0-2.7392 0.128-4.1472 0.3584-104.3456 17.8176-169.0624 100.864-187.136 240.128C0 441.344 15.488 534.784 16.1536 538.7008a24.4224 24.4224 0 0 0 28.1856 20.0192c13.3376-2.2272 22.272-14.848 20.0192-28.16-0.5376-3.456-55.9872-346.88 144.0256-381.1072a24.4224 24.4224 0 0 0-4.1216-48.5376zM517.12-128c-65.152 0-131.0464 27.3664-191.8464 81.408C248.576 21.5808 145.5872 248.32 141.2608 257.92a24.448 24.448 0 1 0 44.5696 20.1472c0.9984-2.2784 102.9888-226.816 171.9552-288.1024 62.7968-55.808 160.9472-106.8032 272-32.7936 66.8928 44.5952 158.6432 162.0992 190.1824 274.1504 32.3072 114.8416 41.0368 204.3392 36.9152 223.0784-6.8352 8.064-33.7664 19.3792-59.904 30.336-33.5104 14.0288-75.2384 31.488-123.1616 59.1616-56.576 32.64-111.0528 71.1424-126.5664 131.3536a24.448 24.448 0 1 0 47.36 12.16c8.8832-34.5088 38.9376-63.8208 103.68-101.1712 45.2096-26.112 85.3504-42.9056 117.6064-56.3968 42.1632-17.664 70.0416-29.3376 83.3536-50.7392 20.7104-33.3056-8.8064-177.7408-32.2048-260.9408-35.0208-124.4672-134.3488-251.1104-210.1248-301.6448C612.3008-113.2544 564.9152-128 517.12-128zM902.4768-25.8048c-10.1376 0-20.096 1.1264-28.8256 2.4064-70.272 10.3168-111.7952 72.7552-113.536 75.4176a24.4224 24.4224 0 1 0 40.9344 26.7264c0.256-0.384 31.488-46.6944 79.6672-53.76 30.1312-4.3776 37.2224 0.512 37.2736 0.512 1.3056 4.992-6.3232 26.112-10.3936 37.4016-2.688 7.4496-5.3504 14.7456-7.296 21.5296-9.6512 33.024 4.2496 89.3184 23.4752 167.2704 22.272 90.2144 49.9712 202.496 42.1376 295.6032-12.0576 142.976-97.2032 230.3744-172.8512 264.4736-144.8448 65.3568-328.3456 19.6096-330.1888 19.1488a24.4224 24.4224 0 1 0-12.1088 47.36c8.192 2.0992 202.1376 50.4064 362.3936-21.9392 112.6912-50.816 189.9008-167.6288 201.472-304.9472 8.5248-101.0688-20.2496-217.728-43.3664-311.4496-14.72-59.6992-29.952-121.4464-24.0128-141.824 1.6896-5.8624 3.968-12.16 6.2976-18.5856 9.8048-27.0848 21.9904-60.8 1.9456-85.3504-12.8-15.6928-33.2032-19.9936-53.0176-19.9936zM258.0736 440.3968a24.4224 24.4224 0 0 0-22.2976 14.4896l-56.96 127.5904-110.4128 49.3568a24.5248 24.5248 0 0 0-14.4384 23.168 24.5504 24.5504 0 0 0 16 22.1184L183.04 718.72l43.4688 134.3488a24.4992 24.4992 0 0 0 21.9648 16.896 24.9344 24.9344 0 0 0 23.6544-14.464l60.2624-135.2448 104.0384-42.6496a24.448 24.448 0 0 0 1.664-44.5184l-108.8-54.4-48.4608-122.8032a24.3968 24.3968 0 0 0-22.1952-15.488h-0.5632zM143.232 651.9808l64.1024-28.672a24.3712 24.3712 0 0 0 12.3392-12.3392l36.992-82.944 30.5152 77.3376a24.448 24.448 0 0 0 11.8016 12.9024l69.0688 34.5088-63.3088 25.9584a24.6784 24.6784 0 0 0-13.0816 12.6464L253.4144 777.3184 225.92 692.3776a24.576 24.576 0 0 0-14.8224-15.4368l-67.8656-24.96z m307.9936-483.4816a23.936 23.936 0 0 0-10.3936 2.3552c-25.2416 11.8784-121.2416 74.7008-113.5872 120.96 0.9728 5.9392 6.3232 25.6768 33.5872 28.7488 48.3584 5.4016 91.0848 118.8096 104.192 172.8768a24.448 24.448 0 0 0 47.5136-11.52c-4.6336-19.0976-45.44-177.6128-129.0496-206.1056 15.4624-18.304 49.664-47.3088 78.1312-60.7232a24.4736 24.4736 0 1 0-10.3936-46.592zM630.4 399.6416c-33.28 0-61.7728 12.2624-77.9264 23.808a24.448 24.448 0 0 0 28.288 39.9104c5.9904-4.1472 59.2128-38.3488 113.5616 12.8512a24.4992 24.4992 0 0 0 33.5616-35.6352c-32.5632-30.592-67.0208-40.9344-97.4848-40.9344z"  horiz-adv-x="1024" />

    
    <glyph glyph-name="xiangbao" unicode="&#983805;" d="M955.733333 529.066667c0 76.8-89.6 140.8-162.133333 140.8h-34.133333c-12.8 128-123.733333 226.133333-251.733334 226.133333s-243.2-98.133333-256-226.133333h-25.6c-72.533333 0-162.133333-59.733333-162.133333-140.8L0 17.066667v-4.266667C0-64 64-128 140.8-128h742.4c76.8 0 140.8 64 140.8 140.8L955.733333 529.066667zM503.466667 832c93.866667 0 174.933333-68.266667 187.733333-162.133333H315.733333c12.8 93.866667 93.866667 162.133333 187.733334 162.133333zM128 524.8c0 42.666667 55.466667 81.066667 98.133333 81.066667h567.466667c42.666667 0 98.133333-38.4 98.133333-76.8l8.533334-72.533334-392.533334-149.333333-392.533333 140.8 12.8 76.8z m750.933333-588.8H136.533333c-42.666667 0-76.8 34.133333-76.8 76.8L106.666667 384l401.066666-145.066667 401.066667 153.6 46.933333-375.466666c0-46.933333-34.133333-81.066667-76.8-81.066667zM618.666667 452.266667c0 17.066667-12.8 34.133333-34.133334 34.133333H426.666667c-17.066667 0-34.133333-12.8-34.133334-34.133333s12.8-34.133333 34.133334-34.133334h157.866666c17.066667 0 34.133333 12.8 34.133334 34.133334z"  horiz-adv-x="1024" />

    
    <glyph glyph-name="huabei" unicode="&#59267;" d="M640 691.2c12.8 38.4-19.2 76.8-70.4 89.6-44.8 12.8-89.6-6.4-96-44.8-12.8-38.4 19.2-83.2 70.4-96 44.8-12.8 89.6 12.8 96 51.2zM979.2 576c-12.8 25.6-19.2 57.6-32 76.8-38.4 70.4-96 134.4-153.6 179.2-12.8 6.4-32 19.2-32 19.2-57.6 32-102.4 44.8-128 44.8-38.4 0-51.2-19.2-51.2-38.4 0-38.4 32-44.8 64-57.6 96-44.8 147.2-121.6 121.6-179.2-19.2-38.4-64-57.6-115.2-57.6-32 0-64 6.4-96 19.2-64 25.6-140.8 70.4-192 70.4-25.6-6.4-44.8-19.2-51.2-51.2C300.8 518.4 422.4 518.4 550.4 384c51.2-57.6 70.4-153.6 38.4-236.8-38.4-102.4-153.6-128-198.4-128h-12.8c-236.8 0-332.8 185.6-332.8 185.6-6.4 0-12.8-6.4 6.4-44.8C140.8-12.8 320-128 512-128c57.6 0 115.2 12.8 172.8 32 256 96 390.4 396.8 294.4 672zM76.8 224c25.6-38.4 51.2-64 70.4-83.2 51.2-44.8 128-89.6 236.8-89.6h12.8c19.2 0 44.8 6.4 70.4 12.8-76.8-6.4-172.8 25.6-224 83.2C128 268.8 147.2 390.4 153.6 416c12.8 57.6 32 102.4 51.2 134.4 12.8 25.6 25.6 51.2 25.6 76.8 0 38.4-25.6 70.4-70.4 70.4S83.2 665.6 64 627.2C25.6 550.4 12.8 467.2 12.8 384c6.4-76.8 44.8-134.4 64-160z"  horiz-adv-x="1024" />

    
    <glyph glyph-name="zhengchexinxi" unicode="&#58881;" d="M263.588748 677.16129c-19.819355-2.477419-29.729032-13.212903-34.683871-18.993548L139.717781 551.63871H36.491974c-11.56129 0-23.948387-9.083871-27.251613-20.645162L0.15649 497.135484c-0.825806-4.129032 1.651613-6.606452 6.606452-8.258065l58.632258-26.425806L41.446813 434.374194c-14.864516-18.167742-21.470968-42.116129-21.470968-71.845162v-285.729032c0-11.56129 9.909677-21.470968 21.470968-21.470968h159.380645c12.387097 0 21.470968 9.909677 21.470968 21.470968v56.154839h576.412903v-56.154839c0-11.56129 9.909677-21.470968 21.470968-21.470968h159.380645c12.387097 0 21.470968 9.909677 21.470968 21.470968V362.529032c0.825806 29.729032-6.606452 53.677419-21.470968 71.845162l-23.948387 28.903225 58.632258 26.425807c4.129032 1.651613 7.432258 4.129032 6.606452 8.258064l-9.083871 33.858065c-3.303226 11.56129-15.690323 20.645161-27.251613 20.645161h-103.225807L795.408103 658.167742c-4.954839 5.780645-14.864516 16.516129-34.683871 18.993548-194.064516 11.56129-303.070968 12.387097-497.135484 0zM159.537135 480.619355c-9.083871-1.651613-9.909677 4.954839-6.606451 9.909677l108.180645 131.303226c4.954839 5.780645 9.909677 9.083871 17.341936 9.909677C470.866168 644.129032 553.446813 643.303226 745.859716 631.741935c7.432258-0.825806 13.212903-4.129032 17.341936-9.909677l108.180645-131.303226c3.303226-4.954839 2.477419-10.735484-6.606452-9.909677-271.690323 13.212903-433.548387 14.864516-705.23871 0z m-67.716129-78.451613l142.03871-17.341936c18.167742-2.477419 33.032258-15.690323 33.032258-33.858064v-25.6c0-4.954839-4.129032-9.083871-9.083871-9.083871L115.769394 321.23871c-20.645161 0.825806-37.987097 18.167742-37.987097 37.987096v28.903226c-0.825806 8.258065 5.780645 14.864516 14.038709 14.03871z m841.496775 0c7.432258 0.825806 14.03871-5.780645 14.038709-13.212903v-28.903226c0-20.645161-17.341935-37.16129-37.987096-37.987097l-142.03871-4.954839c-4.954839 0-9.083871 4.129032-9.083871 9.083871v24.774194c0 17.341935 14.864516 31.380645 33.032258 33.858064l142.03871 17.341936z"  horiz-adv-x="1024" />

    
    <glyph glyph-name="mine_icon_customer" unicode="&#58885;" d="M524.658-101.777h-12.792c-6.396-20.467-30.061-26.223-50.528-26.223s-37.096 12.152-36.457 39.015v58.203c-0 0.011-0 0.025-0 0.038 0 26.171 20.683 47.512 46.594 48.568 23.986-0.617 43.117-20.132 43.117-44.115 0-1.356-0.061-2.698-0.181-4.022l0.012-19.657h10.233c246.298 1.274 445.468 201.232 445.468 447.708 0 247.265-200.448 447.713-447.713 447.713-231.495 0-421.955-175.696-445.307-401.015 20.306-12.155 9.433-33.261 10.072-58.205v-76.751c0-35.177 0-63.959-37.736-63.959s-49.248 26.223-49.248 61.401v77.39c0 27.502 3.198 51.167 27.502 60.761 25.272 254.102 237.937 450.911 496.569 450.911 275.524 0 498.88-223.356 498.88-498.88 0-275.386-223.132-498.656-498.466-498.88zM339.177 400.302c-23.891 0.62-43.021 20.135-43.021 44.118 0 1.356 0.061 2.698 0.181 4.022l-0.012 58.032c0.313 26.062 20.822 47.234 46.586 48.605 24.043-0.99 43.074-20.638 43.074-44.731 0-1.138-0.042-2.266-0.126-3.383l-1.91-58.693c-0.262-25.297-19.808-45.947-44.623-47.96zM654.495 448.271v58.203c0.361 26.923 22.27 48.609 49.244 48.609 0.001 0 0.003-0 0.004-0 23.89-0.62 43.021-20.135 43.021-44.118 0-1.356-0.061-2.698-0.181-4.022l0.012-58.032c0-0.011 0-0.025 0-0.038 0-26.171-20.683-47.512-46.594-48.568-0.527-0.018-1.035-0.027-1.544-0.027-24.373 0-44.132 19.758-44.132 44.132 0 1.359 0.061 2.704 0.182 4.032zM742.119 205.227c-249.44-191.877-421.49-33.898-462.424 12.152 71.669-34.863 155.911-55.243 244.913-55.243 78.461 0 153.224 15.839 221.263 44.493z"  horiz-adv-x="1024" />

    
    <glyph glyph-name="fangdajing" unicode="&#58626;" d="M870.441 95.846l-176.415 176.497c-2.089 2.089-4.342 3.604-6.472 5.284 29.778 45.711 47.145 100.188 47.145 158.925 0 161.219-130.621 291.84-291.881 291.84-161.137 0-291.881-130.621-291.881-291.84 0-161.26 130.744-291.881 291.881-291.881 58.655 0 113.213 17.449 159.007 47.268 1.679-2.253 3.195-4.383 5.243-6.472l176.456-176.497c12.001-12.001 27.73-17.94 43.459-17.94s31.416 5.939 43.459 17.94c23.921 24.003 23.921 62.874-0 86.876M442.86 236.79c-110.1 0-199.68 89.62-199.68 199.721s89.62 199.68 199.68 199.68 199.721-89.62 199.721-199.68-89.661-199.721-199.721-199.721z"  horiz-adv-x="1024" />

    
    <glyph glyph-name="jujia" unicode="&#58886;" d="M944.64 522.24c-20.48 20.48-48.64 28.16-74.24 30.72v151.040c0 43.52-33.28 76.8-76.8 76.8h-563.2c-43.52 0-76.8-33.28-76.8-76.8v-156.16c-35.84-5.12-64-17.92-81.92-40.96-35.84-48.64-20.48-112.64-20.48-115.2l2.56-7.68 99.84-125.44v-117.76c0-35.84 23.040-64 56.32-74.24v-28.16c0-28.16 23.040-51.2 51.2-51.2s51.2 23.040 51.2 51.2v25.6h401.92v-25.6c0-28.16 23.040-51.2 51.2-51.2s51.2 23.040 51.2 51.2v28.16c30.72 10.24 56.32 38.4 56.32 74.24v117.76l99.84 125.44v5.12c10.24 61.44 0 104.96-28.16 133.12zM230.4 729.6h563.2c15.36 0 25.6-10.24 25.6-25.6v-153.6h-5.12l-7.68-2.56-253.44-227.84h-107.52l-240.64 215.040v168.96c0 15.36 10.24 25.6 25.6 25.6zM261.12 38.4v0zM762.88 38.4v0zM921.6 407.040l-102.4-128v-138.24c0-15.36-10.24-25.6-25.6-25.6h-563.2c-15.36 0-25.6 10.24-25.6 25.6v138.24l-104.96 130.56c-2.56 12.8-5.12 46.080 12.8 66.56 10.24 15.36 30.72 23.040 56.32 23.040l35.84-33.28 220.16-199.68h148.48l258.56 232.96h40.96c15.36-2.56 28.16-5.12 38.4-15.36 12.8-12.8 17.92-38.4 10.24-76.8z"  horiz-adv-x="1024" />

    
    <glyph glyph-name="hongxin" unicode="&#58627;" d="M781.112889 748.302222c-149.532444 49.194667-253.838222-66.360889-271.175111-87.409778-0.924444 1.265778-111.246222 145.194667-274.602667 91.548445C40.32 688.469333-16.327111 442.368 96.156444 301.36888899999997c105.287111-131.754667 410.040889-361.841778 410.040889-361.841778s301.511111 216.846222 414.094223 357.717333c112.355556 140.970667 55.836444 387.157333-139.178667 451.057778z"  horiz-adv-x="1024" />

    
    <glyph glyph-name="iconcopy" unicode="&#58982;" d="M43.690667 406.613333a64 64 0 0 0 64 64h809.728a64 64 0 0 0 63.957333-66.944c-13.738667-294.698667-164.949333-445.610667-447.488-445.610666C224.768-41.941333 58.88 108.373333 43.776 403.370667c-0.085333 1.621333-0.085333 1.621333-0.085333 3.285333z m490.197333-405.888c259.285333 0 392.192 132.608 404.864 404.906667a21.333333 21.333333 0 0 1-20.309333 22.314667H107.690667a21.333333 21.333333 0 0 1-21.333334-21.333334c13.994667-272.896 160.682667-405.888 447.530667-405.888zM640-21.333333v-85.333334h-256v85.333334zM150.442667 789.333333l810.666666 42.666667a21.333333 21.333333 0 0 1-2.218666 42.666667l-810.666667-42.666667a21.333333 21.333333 0 1 1 2.218667-42.666667zM149.333333 746.666667h810.666667a21.333333 21.333333 0 1 1 0 42.666666H149.333333a21.333333 21.333333 0 0 1 0-42.666666zM213.333333 512V810.666667a21.333333 21.333333 0 0 0 21.333334 21.333333 21.333333 21.333333 0 0 1 0 42.666667A64 64 0 0 1 170.666667 810.666667v-298.666667a21.333333 21.333333 0 1 1 42.666666 0zM298.666667 469.333333V810.666667a21.333333 21.333333 0 0 0 21.333333 21.333333 21.333333 21.333333 0 0 1 0 42.666667A64 64 0 0 1 256 810.666667v-341.333334a21.333333 21.333333 0 1 1 42.666667 0zM384 512V810.666667a21.333333 21.333333 0 0 0 21.333333 21.333333 21.333333 21.333333 0 1 1 0 42.666667A64 64 0 0 1 341.333333 810.666667v-298.666667a21.333333 21.333333 0 1 1 42.666667 0zM469.333333 469.333333V810.666667a21.333333 21.333333 0 0 0 21.333334 21.333333 21.333333 21.333333 0 1 1 0 42.666667A64 64 0 0 1 426.666667 810.666667v-341.333334a21.333333 21.333333 0 1 1 42.666666 0zM64 320h896v42.666667H64z"  horiz-adv-x="1024" />

    
    <glyph glyph-name="yanjing" unicode="&#58924;" d="M1467.454431 206.68259a31.537398 31.537398 0 0 1-3.861722 12.872407l-286.411062 536.135764C1169.458202 767.275927 1098.659962 896 995.680704 896c-64.362036 0-119.069767-48.271527-166.697674-140.95286a32.181018 32.181018 0 1 1 57.282212-29.606537c24.457574 48.271527 64.362036 105.55374 110.059082 106.197361 54.707731 0 108.771842-77.234444 124.862351-106.840981l202.096795-377.805154a411.917033 411.917033 0 0 1-173.133879 37.973602 354.634821 354.634821 0 0 1-299.927089-144.170962 491.082338 491.082338 0 0 1-210.46386-4.505343 352.70396 352.70396 0 0 1-304.432432 148.676305 411.917033 411.917033 0 0 1-171.846637-37.329982l200.165933 373.943432c14.803268 27.675676 70.15462 106.840981 124.862351 106.840981 46.340666 0 85.601508-57.925833 110.059082-106.19736a32.181018 32.181018 0 0 1 57.282212 29.606536C608.864865 844.510371 552.869893 892.138278 489.795097 892.781898 386.172219 892.781898 314.730358 767.275927 307.006914 751.829038l-279.331238-521.332495v-4.505342l-5.148963-9.654306a32.181018 32.181018 0 0 1-3.218102-11.585167 198.235072 198.235072 0 0 1-19.308611-75.303582c0-140.95286 150.607165-257.448146 335.32621-257.448146s335.32621 114.564425 335.32621 257.448146a196.304211 196.304211 0 0 1-6.436204 46.984286 426.720302 426.720302 0 0 0 156.399749 4.505343 197.591452 197.591452 0 0 1-7.079824-51.489629c0-140.95286 150.607165-257.448146 335.32621-257.448146s335.32621 114.564425 335.32621 257.448146a198.878693 198.878693 0 0 1-16.73413 77.234444zM335.32621-61.707102c-149.319925 0-270.964173 85.601508-270.964174 193.086109a141.59648 141.59648 0 0 0 18.021371 64.362036l5.148963 9.654306a291.560025 291.560025 0 0 0 247.79384 115.208045c149.319925 0 270.964173-85.601508 270.964173-193.086109s-121.644249-189.224387-270.964173-189.224387z m814.179761 0c-149.319925 0-270.964173 85.601508-270.964173 193.086109s121.644249 193.086109 270.964173 193.086109 270.964173-85.601508 270.964174-193.086109-121.644249-193.086109-270.964174-193.086109z"  horiz-adv-x="1486" />

    
    <glyph glyph-name="feizhu" unicode="&#58969;" d="M953.837037 592.592593h54.992593l-1.896297-11.377778-9.481481-39.822222c0-3.792593-3.792593-15.17037-7.585185-26.548149-5.688889-17.066667-13.274074-36.02963-24.651852-54.992592-28.444444-53.096296-66.37037-96.711111-117.570371-127.051852-5.688889-104.296296-45.511111-197.214815-109.985185-263.585185-72.059259-72.059259-168.77037-109.985185-278.755555-109.985185-111.881481 0-214.281481 39.822222-286.340741 113.777777-70.162963 72.059259-106.192593 170.666667-106.192593 288.237037 1.896296 240.82963 182.044444 417.185185 493.037037 413.392593h449.422223l-11.377778-60.681481c-9.481481-45.511111-24.651852-89.125926-43.614815-121.362963z m-108.088889-62.577778l9.481482 15.17037 39.822222 64.474074c17.066667 26.548148 32.237037 64.474074 39.822222 102.4H553.718519c-140.325926 0-252.207407-37.925926-326.162963-111.881481-62.577778-62.577778-98.607407-147.911111-98.607408-240.82963 0-100.503704 30.340741-185.837037 89.125926-244.622222 60.681481-60.681481 146.014815-94.814815 242.725926-94.814815 94.814815 0 176.355556 32.237037 237.037037 92.918519 54.992593 56.888889 89.125926 136.533333 92.918519 227.555555l1.896296 28.444445 3.792592 1.896296 18.962963 11.377778c60.681481 34.133333 96.711111 91.022222 117.570371 149.807407h-87.22963z m-345.125926-89.125926c73.955556 0 132.740741-62.577778 132.740741-140.325926 0-77.748148-58.785185-140.325926-132.740741-140.325926h-104.296296c-73.955556 0-132.740741 62.577778-132.740741 140.325926 0 77.748148 58.785185 140.325926 132.740741 140.325926h104.296296z m0-221.866667c39.822222 0 72.059259 36.02963 72.059259 79.644445s-32.237037 79.644444-72.059259 79.644444h-104.296296c-39.822222 0-72.059259-36.02963-72.059259-79.644444s32.237037-79.644444 72.059259-79.644445h104.296296z m-174.459259 246.518519c0-22.755556-18.962963-41.718519-41.718519-41.718519-22.755556 0-41.718519 18.962963-41.718518 41.718519 0 22.755556 18.962963 41.718519 41.718518 41.718518 22.755556 0 41.718519-18.962963 41.718519-41.718518z m309.096296 41.718518c22.755556 0 41.718519-18.962963 41.718519-41.718518 0-22.755556-18.962963-43.614815-41.718519-43.614815-22.755556 0-41.718519 18.962963-41.718518 43.614815 0 22.755556 18.962963 41.718519 41.718518 41.718518z m-229.451852-176.355555c17.066667 0 32.237037-13.274074 32.237037-32.237037 0-17.066667-13.274074-32.237037-32.237037-32.237037-17.066667 0-32.237037 13.274074-32.237037 32.237037 0 17.066667 13.274074 32.237037 32.237037 32.237037z m87.22963 0c17.066667 0 32.237037-13.274074 32.237037-32.237037 0-17.066667-13.274074-32.237037-32.237037-32.237037-17.066667 0-32.237037 13.274074-32.237037 32.237037 0 17.066667 15.17037 32.237037 32.237037 32.237037z"  horiz-adv-x="1024" />

    
    <glyph glyph-name="muying" unicode="&#59049;" d="M509.386476 384.595564l5.227048-1.190105-5.227048 1.190105z m0 0M512-103.83769400000006c-268.99343 0-487.839741 218.84324-487.839741 487.836671 0 155.052378 74.813916 302.337863 200.1239 394.004609a490.687602 490.687602 0 0 0 30.406521 20.530592C331.794755 846.489376 420.774299 871.838717 512 871.838717c268.99343 0 487.840764-218.848357 487.840764-487.840764-0.001023-268.99343-218.847334-487.835647-487.840764-487.835647z m0 926.933267c-82.125439 0-162.187893-22.799262-231.555773-65.953108a444.608124 444.608124 0 0 1-27.39493-18.494213C140.246161 656.146237 72.90238 523.568732 72.90238 383.99795300000005c0-242.119363 196.97314-439.093527 439.09762-439.093526 242.119363 0 439.092503 196.974164 439.092503 439.093526-0.001023 242.123456-196.97314 439.09762-439.092503 439.09762z m0 0M328.628646 475.632977c-29.668717 0-60.016909 7.517207-88.453565 22.808472-54.761208 29.455869-85.063351 84.702124-81.072457 147.795091 4.797259 75.931367 56.812937 141.957129 135.759987 172.321694 12.465916 4.818749 26.581402-1.429559 31.416524-13.963014 4.830005-12.528338-1.424442-26.597775-13.963013-31.416523-72.890101-28.0478-101.873202-85.546352-104.673991-130.011053-2.768043-43.600007 18.012236-81.689511 55.565526-101.885481 60.862159-32.770358 117.1747-12.751419 146.907885 14.292517 22.648836 20.62576 41.446971 55.463196 26.26213 91.40171-5.221932 12.374842 0.568958 26.634614 12.942777 31.868825 12.386098 5.164626 26.629497-0.567935 31.868825-12.942777 20.630876-48.880267 5.589298-106.299001-38.340214-146.290831-31.936363-29.064966-72.412217-43.97863-114.220414-43.97863z m28.982078-198.450795a24.285103 24.285103 0 0 0-18.271132 8.267291c-2.51938 2.800789-62.313208 68.391646-159.043273 36.071544-12.831236-4.228301-26.523073 2.635013-30.773887 15.338336-4.261047 12.725836 2.614547 26.523073 15.338336 30.773888 128.174218 42.86732 207.758788-46.351678 211.08044-50.176796 8.80862-10.116405 7.756661-25.477254-2.368954-34.285875a24.25031 24.25031 0 0 0-15.96153-5.988388z m192.097086-5.722328a24.218588 24.218588 0 0 0-17.002232 6.933923c-9.606799 9.404184-9.771551 24.790616-0.378624 34.386158 3.463891 3.539616 86.079494 85.854367 222.073818 50.910507 13.016455-3.347235 20.853957-16.619516 17.500583-29.610388-3.347235-13.011338-16.737196-20.826328-29.609365-17.501606-109.116163 28.186969-174.557618-37.165458-175.201278-37.802978a24.258497 24.258497 0 0 0-17.382902-7.315616z m0 0"  horiz-adv-x="1024" />

    
    <glyph glyph-name="appliances" unicode="&#58913;" d="M674.850133 366.93333299999995h21.469867a51.2 51.2 0 0 0 0-102.4h-21.469867A170.734933 170.734933 0 0 0 341.333333 315.733333a170.666667 170.666667 0 0 0 333.5168 51.2zM273.066667 759.466667h477.866666a68.266667 68.266667 0 0 0 68.266667-68.266667v-614.4a68.266667 68.266667 0 0 0-68.266667-68.266667H273.066667a68.266667 68.266667 0 0 0-68.266667 68.266667V691.2a68.266667 68.266667 0 0 0 68.266667 68.266667z m0-34.133334a34.133333 34.133333 0 0 1-34.133334-34.133333v-614.4a34.133333 34.133333 0 0 1 34.133334-34.133333h477.866666a34.133333 34.133333 0 0 1 34.133334 34.133333V691.2a34.133333 34.133333 0 0 1-34.133334 34.133333H273.066667z m17.066666-51.2h68.266667a17.066667 17.066667 0 0 0 0-34.133333h-68.266667a17.066667 17.066667 0 0 0 0 34.133333z m136.533334 0h68.266666a17.066667 17.066667 0 0 0 0-34.133333h-68.266666a17.066667 17.066667 0 0 0 0 34.133333zM512 179.20000000000005a136.533333 136.533333 0 1 1 0 273.066667 136.533333 136.533333 0 0 1 0-273.066667z m0 34.133333a102.4 102.4 0 1 0 0 204.8 102.4 102.4 0 0 0 0-204.8z m0 34.133334a68.266667 68.266667 0 1 1 0 136.533333 68.266667 68.266667 0 0 1 0-136.533333z m170.666667 68.266666c0-5.768533-0.273067-11.4688-0.853334-17.066666h14.506667a17.066667 17.066667 0 1 1 0 34.133333h-14.506667c0.580267-5.597867 0.853333-11.298133 0.853334-17.066667zM238.933333 588.8h546.133334v-34.133333H238.933333V588.8z"  horiz-adv-x="1024" />

    
    <glyph glyph-name="games" unicode="&#58915;" d="M361.642667 255.72693300000003v-44.373333a16.7936 16.7936 0 0 0-17.066667-16.657067 16.861867 16.861867 0 0 0-17.032533 16.622934v44.407466H282.180267a16.861867 16.861867 0 0 0-17.066667 16.657067c0 9.181867 7.645867 16.622933 17.066667 16.622933h45.3632v44.509867c0 9.181867 7.645867 16.622933 17.066666 16.622933 9.386667 0 17.066667-7.441067 17.066667-16.622933v-44.509867h45.329067c9.4208 0 17.066667-7.441067 17.066666-16.622933a16.861867 16.861867 0 0 0-17.066666-16.657067h-45.3632z m63.965866 252.757334a16.2816 16.2816 0 0 0-0.3072 3.106133c0 44.100267 38.229333 80.008533 85.1968 80.008533h112.196267a16.554667 16.554667 0 0 1 16.896 16.622934 16.9984 16.9984 0 0 1-16.896 16.622933h-112.196267c-46.967467 0-85.1968 37.307733-85.1968 83.114667 0 9.181867 7.645867 16.622933 17.066667 16.622933s17.066667-7.441067 17.066667-16.622933c0-27.5456 22.903467-49.902933 51.063466-49.902934h112.196267c28.16 0 50.9952-22.391467 50.9952-49.902933 0-27.5456-22.869333-49.937067-50.9952-49.937067h-112.196267c-28.16 0-51.063467-20.957867-51.063466-46.762666 0-1.024-0.1024-2.013867-0.3072-2.9696h189.0304c131.549867 0 238.557867-104.413867 238.557866-232.7552s-107.008-232.721067-238.557866-232.721067h-272.657067c-131.549867 0-238.557867 104.379733-238.557867 232.721067s107.008 232.789333 238.592 232.789333h50.0736z m-50.107733-33.28c-112.708267 0-204.458667-89.4976-204.458667-199.4752 0-109.9776 91.7504-199.4752 204.458667-199.4752h272.657067c112.708267 0 204.458667 89.4976 204.458666 199.4752 0 109.9776-91.7504 199.4752-204.458666 199.4752h-272.657067z m285.184-332.458667c-35.1232 0-63.5904 26.794667-63.5904 59.733333s28.5696 59.733333 63.5904 59.733334c35.089067 0 63.5904-26.794667 63.5904-59.733334s-28.5696-59.733333-63.5904-59.733333z m0.068267 146.193067c-35.157333 0-63.761067 26.862933-63.761067 59.904 0 33.041067 28.672 59.904 63.761067 59.904 35.191467 0 63.761067-26.862933 63.761066-59.904 0.068267-33.041067-28.5696-59.904-63.761066-59.904z m-0.068267-60.0064c-16.315733 0-29.5936-11.8784-29.5936-26.453334 0-14.574933 13.312-26.487467 29.5936-26.487466s29.559467 11.912533 29.559467 26.487466c-0.1024 14.574933-13.346133 26.453333-29.559467 26.453334z m0.068267 146.5344c-16.384 0-29.661867-11.946667-29.661867-26.624 0-14.677333 13.380267-26.624 29.696-26.624 16.349867 0 29.696 11.946667 29.696 26.624 0 14.677333-13.346133 26.624-29.696 26.624z"  horiz-adv-x="1024" />

    
    <glyph glyph-name="gouwuche" unicode="&#58628;" d="M357.44 129.60000000000002q18.24 0 34.56-6.72t28.8-18.72 19.2-28.32 6.72-34.56-6.72-34.56-19.2-28.32-28.8-19.2-34.56-7.2q-19.2 0-35.04 7.2t-28.32 19.2-19.2 28.32-6.72 34.56 6.72 34.56 19.2 28.32 28.32 18.72 35.04 6.72zM756.8 127.67999999999995q18.24 0 35.04-6.72t28.8-18.72 19.2-28.32 7.2-34.56-7.2-34.56-19.2-28.32-28.8-19.2-35.04-7.2-34.56 7.2-28.32 19.2-19.2 28.32-7.2 34.56 7.2 34.56 19.2 28.32 28.32 18.72 34.56 6.72zM918.08 672.96q26.88 0 41.76-7.2t21.12-17.76 5.76-22.56-3.36-20.64-12-35.52-20.64-59.04-22.56-63.84-16.8-49.92q-12.48-38.4-31.68-53.28t-47.04-14.88l-32.64 0-62.4 0-81.6 0-89.28 0-238.08 0 14.4-86.4 483.84 0q46.08 0 46.08-39.36 0-19.2-9.12-33.12t-36-13.92l-46.08 0-89.28 0-110.4 0-112.32 0-92.16 0-52.8 0q-19.2 0-32.16 8.64t-21.6 22.56-13.92 30.24-8.16 30.72q-0.96 5.76-5.28 27.84t-10.56 55.2-13.92 73.92-15.36 82.08q-18.24 96.96-41.28 216l-72 0q-14.4 0-24 7.2t-15.84 17.28-8.64 21.6-2.4 21.12q0 19.2 12.96 31.68t35.04 12.48l21.12 0 19.2 0 24 0 32.64 0q19.2 0 30.72-5.76t18.24-14.4 9.6-18.24 4.8-16.32q1.92-7.68 3.84-21.6t3.84-28.32q2.88-17.28 5.76-36.48l656.64 0z"  horiz-adv-x="1024" />

    
    <glyph glyph-name="zhubao" unicode="&#58905;" d="M631.2704 728.9088a17.5872 17.5872 0 0 0-15.1296 26.5472l57.1648 96.7168a17.5872 17.5872 0 0 0 30.2848-17.8944l-57.1648-96.7168a17.4848 17.4848 0 0 0-15.1552-8.6528M402.6624 728.9088a17.5872 17.5872 0 0 0-14.8736 8.1408l-61.5168 96.7168c-5.248 8.192-2.8416 19.072 5.3504 24.2688s19.072 2.7904 24.2944-5.4016l61.5424-96.7168a17.5872 17.5872 0 0 0-14.7968-27.008M512.5632 724.5056a17.6128 17.6128 0 0 0-17.5872 17.6128V878.3872c0.0256 9.7024 7.9104 17.6128 17.5872 17.6128s17.6128-7.9104 17.6128-17.6128v-136.2944c0-9.728-7.9104-17.5872-17.6128-17.5872M852.7104 693.504l-673.28 2.0992-155.0592-233.7024L511.4368-128l488.192 590.1056-146.9184 231.3984z m-338.688-34.1248l155.1872-177.536H358.8864l146.9952 177.5616 8.1408-0.0256z m46.848-0.1536l251.1104-0.768-107.0336-164.0448-144.0768 164.8128z m121.5488-212.5824L511.488-45.798400000000015l-166.656 492.4416h337.5872z m-359.552 46.848L218.112 660.3008l242.2016-0.7424-137.4464-166.0672z m-34.2528-11.648H79.8208l107.264 161.664 101.5296-161.664z m19.072-35.2l156.3904-462.0544L82.6112 446.6432h225.0752z m411.9808 0h221.5424l-381.7216-461.312 160.1792 461.312z m19.0464 35.2l104.8064 160.5376 101.888-160.5376h-206.6944z"  horiz-adv-x="1024" />

    


  </font>
</defs>
</svg>
